<svg width="400" height="280" viewBox="0 0 400 280" fill="none" xmlns="http://www.w3.org/2000/svg">
  <rect width="400" height="280" rx="12" fill="#0b0f19"/>
  <!-- Gold Border Frame -->
  <rect x="12" y="12" width="376" height="256" rx="8" stroke="#eab308" stroke-opacity="0.3" stroke-width="2"/>
  <rect x="18" y="18" width="364" height="244" rx="6" stroke="#eab308" stroke-opacity="0.15" stroke-width="1"/>
  
  <!-- Ribbon Badge -->
  <path d="M330 190 L345 220 L330 210 L315 220 Z" fill="#ffd700" fill-opacity="0.8"/>
  <circle cx="330" cy="185" r="20" fill="#eab308" stroke="#ffd700" stroke-width="1.5"/>
  <circle cx="330" cy="185" r="14" fill="#0b0f19"/>
  <path d="M326 180 L334 185 L326 190" stroke="#ffd700" stroke-width="1.5" stroke-linecap="round" stroke-linejoin="round"/>
  
  <!-- Certificate Typography -->
  <text x="200" y="55" fill="#eab308" font-family="'Space Grotesk', sans-serif" font-size="14" font-weight="bold" text-anchor="middle" letter-spacing="2">CERTIFICATE OF COMPLETION</text>
  <text x="200" y="80" fill="#9ca3af" font-family="'Outfit', sans-serif" font-size="10" text-anchor="middle">PROUDLY PRESENTED TO</text>
  <text x="200" y="115" fill="#ffffff" font-family="'Space Grotesk', sans-serif" font-size="20" font-weight="bold" text-anchor="middle">Nikhil Chowdary</text>
  
  <line x1="80" y1="130" x2="320" y2="130" stroke="#ffd700" stroke-opacity="0.3" stroke-width="1"/>
  
  <text x="200" y="155" fill="#9ca3af" font-family="'Outfit', sans-serif" font-size="10" text-anchor="middle">for successfully completing the specialization in</text>
  <text x="200" y="180" fill="#eab308" font-family="'Space Grotesk', sans-serif" font-size="14" font-weight="bold" text-anchor="middle">Artificial Intelligence & Foundations</text>
  <text x="200" y="198" fill="#9ca3af" font-family="'Outfit', sans-serif" font-size="9" text-anchor="middle">Authorized by Blackbucks Engineers</text>
  
  <!-- Signatures -->
  <line x1="70" y1="230" x2="160" y2="230" stroke="#9ca3af" stroke-opacity="0.4" stroke-width="1"/>
  <text x="115" y="244" fill="#6b7280" font-family="'Outfit', sans-serif" font-size="8" text-anchor="middle">Registrar</text>
  
  <line x1="240" y1="230" x2="330" y2="230" stroke="#9ca3af" stroke-opacity="0.4" stroke-width="1"/>
  <text x="285" y="244" fill="#6b7280" font-family="'Outfit', sans-serif" font-size="8" text-anchor="middle">Program Director</text>
</svg>
